<?xml version="1.0" encoding="UTF-8" standalone="no"?>
<!DOCTYPE svg PUBLIC "-//W3C//DTD SVG 1.1//EN"
 "http://www.w3.org/Graphics/SVG/1.1/DTD/svg11.dtd">
<!-- Generated by graphviz version 2.38.0 (20140413.2041)
 -->
<!-- Title: test Pages: 1 -->
<svg width="100%" height="100%" xmlns="http://www.w3.org/2000/svg" xmlns:xlink="http://www.w3.org/1999/xlink">
<script type="text/ecmascript"><![CDATA[
/**
 *  SVGPan library 1.2.2
 * ======================
 *
 * Given an unique existing element with id "viewport" (or when missing, the
 * first g-element), including the library into any SVG adds the following
 * capabilities:
 *
 *  - Mouse panning
 *  - Mouse zooming (using the wheel)
 *  - Object dragging
 *
 * You can configure the behaviour of the pan/zoom/drag with the variables
 * listed in the CONFIGURATION section of this file.
 *
 * Known issues:
 *
 *  - Zooming (while panning) on Safari has still some issues
 *
 * Releases:
 *
 * 1.2.2, Tue Aug 30 17:21:56 CEST 2011, Andrea Leofreddi
 *	- Fixed viewBox on root tag (#7)
 *	- Improved zoom speed (#2)
 *
 * 1.2.1, Mon Jul  4 00:33:18 CEST 2011, Andrea Leofreddi
 *	- Fixed a regression with mouse wheel (now working on Firefox 5)
 *	- Working with viewBox attribute (#4)
 *	- Added "use strict;" and fixed resulting warnings (#5)
 *	- Added configuration variables, dragging is disabled by default (#3)
 *
 * 1.2, Sat Mar 20 08:42:50 GMT 2010, Zeng Xiaohui
 *	Fixed a bug with browser mouse handler interaction
 *
 * 1.1, Wed Feb  3 17:39:33 GMT 2010, Zeng Xiaohui
 *	Updated the zoom code to support the mouse wheel on Safari/Chrome
 *
 * 1.0, Andrea Leofreddi
 *	First release
 *
 * This code is licensed under the following BSD license:
 *
 * Copyright 2009-2017 Andrea Leofreddi <a.leofreddi@vleo.net>. All rights reserved.
 *
 * Redistribution and use in source and binary forms, with or without modification, are
 * permitted provided that the following conditions are met:
 *
 *    1. Redistributions of source code must retain the above copyright
 *       notice, this list of conditions and the following disclaimer.
 *    2. Redistributions in binary form must reproduce the above copyright
 *       notice, this list of conditions and the following disclaimer in the
 *       documentation and/or other materials provided with the distribution.
 *    3. Neither the name of the copyright holder nor the names of its
 *       contributors may be used to endorse or promote products derived from
 *       this software without specific prior written permission.
 *
 * THIS SOFTWARE IS PROVIDED BY COPYRIGHT HOLDERS AND CONTRIBUTORS ''AS IS'' AND ANY EXPRESS
 * OR IMPLIED WARRANTIES, INCLUDING, BUT NOT LIMITED TO, THE IMPLIED WARRANTIES OF MERCHANTABILITY
 * AND FITNESS FOR A PARTICULAR PURPOSE ARE DISCLAIMED. IN NO EVENT SHALL COPYRIGHT HOLDERS OR
 * CONTRIBUTORS BE LIABLE FOR ANY DIRECT, INDIRECT, INCIDENTAL, SPECIAL, EXEMPLARY, OR
 * CONSEQUENTIAL DAMAGES (INCLUDING, BUT NOT LIMITED TO, PROCUREMENT OF SUBSTITUTE GOODS OR
 * SERVICES; LOSS OF USE, DATA, OR PROFITS; OR BUSINESS INTERRUPTION) HOWEVER CAUSED AND ON
 * ANY THEORY OF LIABILITY, WHETHER IN CONTRACT, STRICT LIABILITY, OR TORT (INCLUDING
 * NEGLIGENCE OR OTHERWISE) ARISING IN ANY WAY OUT OF THE USE OF THIS SOFTWARE, EVEN IF
 * ADVISED OF THE POSSIBILITY OF SUCH DAMAGE.
 *
 * The views and conclusions contained in the software and documentation are those of the
 * authors and should not be interpreted as representing official policies, either expressed
 * or implied, of Andrea Leofreddi.
 */

"use strict";

/// CONFIGURATION
/// ====>

var enablePan = 1; // 1 or 0: enable or disable panning (default enabled)
var enableZoom = 1; // 1 or 0: enable or disable zooming (default enabled)
var enableDrag = 0; // 1 or 0: enable or disable dragging (default disabled)
var zoomScale = 0.2; // Zoom sensitivity

/// <====
/// END OF CONFIGURATION

var root = document.documentElement;

var state = 'none', svgRoot = null, stateTarget, stateOrigin, stateTf;

setupHandlers(root);

/**
 * Register handlers
 */
function setupHandlers(root){
	setAttributes(root, {
		"onmouseup" : "handleMouseUp(evt)",
		"onmousedown" : "handleMouseDown(evt)",
		"onmousemove" : "handleMouseMove(evt)",
		//"onmouseout" : "handleMouseUp(evt)", // Decomment this to stop the pan functionality when dragging out of the SVG element
	});

	if(navigator.userAgent.toLowerCase().indexOf('webkit') >= 0)
		window.addEventListener('mousewheel', handleMouseWheel, false); // Chrome/Safari
	else
		window.addEventListener('DOMMouseScroll', handleMouseWheel, false); // Others
}

/**
 * Retrieves the root element for SVG manipulation. The element is then cached into the svgRoot global variable.
 */
function getRoot(root) {
	if(svgRoot == null) {
		var r = root.getElementById("viewport") ? root.getElementById("viewport") : root.documentElement, t = r;

		while(t != root) {
			if(t.getAttribute("viewBox")) {
				setCTM(r, t.getCTM());

				t.removeAttribute("viewBox");
			}

			t = t.parentNode;
		}

		svgRoot = r;
	}

	return svgRoot;
}

/**
 * Instance an SVGPoint object with given event coordinates.
 */
function getEventPoint(evt) {
	var p = root.createSVGPoint();

	p.x = evt.clientX;
	p.y = evt.clientY;

	return p;
}

/**
 * Sets the current transform matrix of an element.
 */
function setCTM(element, matrix) {
	var s = "matrix(" + matrix.a + "," + matrix.b + "," + matrix.c + "," + matrix.d + "," + matrix.e + "," + matrix.f + ")";

	element.setAttribute("transform", s);
}

/**
 * Dumps a matrix to a string (useful for debug).
 */
function dumpMatrix(matrix) {
	var s = "[ " + matrix.a + ", " + matrix.c + ", " + matrix.e + "\n  " + matrix.b + ", " + matrix.d + ", " + matrix.f + "\n  0, 0, 1 ]";

	return s;
}

/**
 * Sets attributes of an element.
 */
function setAttributes(element, attributes){
	for (var i in attributes)
		element.setAttributeNS(null, i, attributes[i]);
}

/**
 * Handle mouse wheel event.
 */
function handleMouseWheel(evt) {
	if(!enableZoom)
		return;

	if(evt.preventDefault)
		evt.preventDefault();

	evt.returnValue = false;

	var svgDoc = evt.target.ownerDocument;

	var delta;

	if(evt.wheelDelta)
		delta = evt.wheelDelta / 360; // Chrome/Safari
	else
		delta = evt.detail / -9; // Mozilla

	var z = Math.pow(1 + zoomScale, delta);

	var g = getRoot(svgDoc);
	
	var p = getEventPoint(evt);

	p = p.matrixTransform(g.getCTM().inverse());

	// Compute new scale matrix in current mouse position
	var k = root.createSVGMatrix().translate(p.x, p.y).scale(z).translate(-p.x, -p.y);

        setCTM(g, g.getCTM().multiply(k));

	if(typeof(stateTf) == "undefined")
		stateTf = g.getCTM().inverse();

	stateTf = stateTf.multiply(k.inverse());
}

/**
 * Handle mouse move event.
 */
function handleMouseMove(evt) {
	if(evt.preventDefault)
		evt.preventDefault();

	evt.returnValue = false;

	var svgDoc = evt.target.ownerDocument;

	var g = getRoot(svgDoc);

	if(state == 'pan' && enablePan) {
		// Pan mode
		var p = getEventPoint(evt).matrixTransform(stateTf);

		setCTM(g, stateTf.inverse().translate(p.x - stateOrigin.x, p.y - stateOrigin.y));
	} else if(state == 'drag' && enableDrag) {
		// Drag mode
		var p = getEventPoint(evt).matrixTransform(g.getCTM().inverse());

		setCTM(stateTarget, root.createSVGMatrix().translate(p.x - stateOrigin.x, p.y - stateOrigin.y).multiply(g.getCTM().inverse()).multiply(stateTarget.getCTM()));

		stateOrigin = p;
	}
}

/**
 * Handle click event.
 */
function handleMouseDown(evt) {
	if(evt.preventDefault)
		evt.preventDefault();

	evt.returnValue = false;

	var svgDoc = evt.target.ownerDocument;

	var g = getRoot(svgDoc);

	if(
		evt.target.tagName == "svg"
		|| !enableDrag // Pan anyway when drag is disabled and the user clicked on an element
	) {
		// Pan mode
		state = 'pan';

		stateTf = g.getCTM().inverse();

		stateOrigin = getEventPoint(evt).matrixTransform(stateTf);
	} else {
		// Drag mode
		state = 'drag';

		stateTarget = evt.target;

		stateTf = g.getCTM().inverse();

		stateOrigin = getEventPoint(evt).matrixTransform(stateTf);
	}
}

/**
 * Handle mouse button release event.
 */
function handleMouseUp(evt) {
	if(evt.preventDefault)
		evt.preventDefault();

	evt.returnValue = false;

	var svgDoc = evt.target.ownerDocument;

	if(state == 'pan' || state == 'drag') {
		// Quit pan mode
		state = '';
	}
}
]]></script><g id="viewport" transform="scale(0.5,0.5) translate(0,0)"><g id="graph0" class="graph" transform="scale(1 1) rotate(0) translate(4 1399)">
<title>test</title>
<polygon fill="white" stroke="none" points="-4,4 -4,-1399 804,-1399 804,4 -4,4"/>
<g id="clust1" class="cluster"><title>cluster_L</title>
<polygon fill="none" stroke="black" points="8,-1291 8,-1387 500,-1387 500,-1291 8,-1291"/>
</g>
<!-- File: test -->
<g id="node1" class="node"><title>File: test</title>
<g id="a_node1"><a xlink:title="test">
<polygon fill="#f8f8f8" stroke="black" points="492,-1379 16,-1379 16,-1299 492,-1299 492,-1379"/>
<text text-anchor="start" x="24" y="-1362.2" font-family="Times,serif" font-size="16.00">File: test</text>
<text text-anchor="start" x="24" y="-1344.2" font-family="Times,serif" font-size="16.00">Type: inuse_space</text>
<text text-anchor="start" x="24" y="-1326.2" font-family="Times,serif" font-size="16.00">Time: Mar 4, 2019 at 11:21pm (+05)</text>
<text text-anchor="start" x="24" y="-1308.2" font-family="Times,serif" font-size="16.00">Showing nodes accounting for 24041.52kB, 100% of 24041.52kB total</text>
</a>
</g>
</g>
<!-- N1 -->
<g id="node1" class="node"><title>N1</title>
<g id="a_node1"><a xlink:title="net/http.(*conn).serve (24041.52kB)">
<polygon fill="#edd5d5" stroke="#b20000" points="605.5,-1361 510.5,-1361 510.5,-1317 605.5,-1317 605.5,-1361"/>
<text text-anchor="middle" x="558" y="-1350.6" font-family="Times,serif" font-size="8.00">net/http</text>
<text text-anchor="middle" x="558" y="-1341.6" font-family="Times,serif" font-size="8.00">(*conn)</text>
<text text-anchor="middle" x="558" y="-1332.6" font-family="Times,serif" font-size="8.00">serve</text>
<text text-anchor="middle" x="558" y="-1323.6" font-family="Times,serif" font-size="8.00">0 of 24041.52kB (100%)</text>
</a>
</g>
</g>
<!-- N10 -->
<g id="node10" class="node"><title>N10</title>
<g id="a_node10"><a xlink:title="net/http.(*conn).readRequest (512.25kB)">
<polygon fill="#edecea" stroke="#b2ac9f" points="427,-1248 337,-1248 337,-1204 427,-1204 427,-1248"/>
<text text-anchor="middle" x="382" y="-1237.6" font-family="Times,serif" font-size="8.00">net/http</text>
<text text-anchor="middle" x="382" y="-1228.6" font-family="Times,serif" font-size="8.00">(*conn)</text>
<text text-anchor="middle" x="382" y="-1219.6" font-family="Times,serif" font-size="8.00">readRequest</text>
<text text-anchor="middle" x="382" y="-1210.6" font-family="Times,serif" font-size="8.00">0 of 512.25kB (2.13%)</text>
</a>
</g>
</g>
<!-- N1&#45;&gt;N10 -->
<g id="edge12" class="edge"><title>N1&#45;&gt;N10</title>
<g id="a_edge12"><a xlink:title="net/http.(*conn).serve &#45;&gt; net/http.(*conn).readRequest (512.25kB)">
<path fill="none" stroke="#b2ac9f" d="M536.095,-1316.87C526.633,-1308.3 515.184,-1298.65 504,-1291 482.836,-1276.53 458.007,-1262.96 436.292,-1252.07"/>
<polygon fill="#b2ac9f" stroke="#b2ac9f" points="437.711,-1248.87 427.196,-1247.57 434.609,-1255.14 437.711,-1248.87"/>
</a>
</g>
<g id="a_edge12&#45;label"><a xlink:title="net/http.(*conn).serve &#45;&gt; net/http.(*conn).readRequest (512.25kB)">
<text text-anchor="middle" x="518" y="-1269.8" font-family="Times,serif" font-size="14.00"> 512.25kB</text>
</a>
</g>
</g>
<!-- N14 -->
<g id="node14" class="node"><title>N14</title>
<g id="a_node14"><a xlink:title="net/http.serverHandler.ServeHTTP (23529.27kB)">
<polygon fill="#edd5d5" stroke="#b20100" points="608.5,-1248 507.5,-1248 507.5,-1204 608.5,-1204 608.5,-1248"/>
<text text-anchor="middle" x="558" y="-1237.6" font-family="Times,serif" font-size="8.00">net/http</text>
<text text-anchor="middle" x="558" y="-1228.6" font-family="Times,serif" font-size="8.00">serverHandler</text>
<text text-anchor="middle" x="558" y="-1219.6" font-family="Times,serif" font-size="8.00">ServeHTTP</text>
<text text-anchor="middle" x="558" y="-1210.6" font-family="Times,serif" font-size="8.00">0 of 23529.27kB (97.87%)</text>
</a>
</g>
</g>
<!-- N1&#45;&gt;N14 -->
<g id="edge8" class="edge"><title>N1&#45;&gt;N14</title>
<g id="a_edge8"><a xlink:title="net/http.(*conn).serve &#45;&gt; net/http.serverHandler.ServeHTTP (23529.27kB)">
<path fill="none" stroke="#b20100" stroke-width="5" d="M558,-1316.86C558,-1300.27 558,-1276.93 558,-1258.2"/>
<polygon fill="#b20100" stroke="#b20100" stroke-width="5" points="562.375,-1258.06 558,-1248.06 553.625,-1258.06 562.375,-1258.06"/>
</a>
</g>
<g id="a_edge8&#45;label"><a xlink:title="net/http.(*conn).serve &#45;&gt; net/http.serverHandler.ServeHTTP (23529.27kB)">
<text text-anchor="middle" x="593.5" y="-1269.8" font-family="Times,serif" font-size="14.00"> 23529.27kB</text>
</a>
</g>
</g>
<!-- N2 -->
<g id="node2" class="node"><title>N2</title>
<g id="a_node2"><a xlink:title="main.handler (23529.27kB)">
<polygon fill="#edd5d5" stroke="#b20100" points="686.5,-963 429.5,-963 429.5,-851 686.5,-851 686.5,-963"/>
<text text-anchor="middle" x="558" y="-939.8" font-family="Times,serif" font-size="24.00">main</text>
<text text-anchor="middle" x="558" y="-913.8" font-family="Times,serif" font-size="24.00">handler</text>
<text text-anchor="middle" x="558" y="-887.8" font-family="Times,serif" font-size="24.00">23017.26kB (95.74%)</text>
<text text-anchor="middle" x="558" y="-861.8" font-family="Times,serif" font-size="24.00">of 23529.27kB (97.87%)</text>
</a>
</g>
</g>
<!-- NN2_0 -->
<g id="NN2_0" class="node"><title>NN2_0</title>
<g id="a_NN2_0"><a xlink:title="15119.35kB">
<polygon fill="#f8f8f8" stroke="black" points="420,-796 370,-796 366,-792 366,-760 416,-760 420,-764 420,-796"/>
<polyline fill="none" stroke="black" points="416,-792 366,-792 "/>
<polyline fill="none" stroke="black" points="416,-792 416,-760 "/>
<polyline fill="none" stroke="black" points="416,-792 420,-796 "/>
<text text-anchor="middle" x="393" y="-776.1" font-family="Times,serif" font-size="8.00">16B..24kB</text>
</a>
</g>
</g>
<!-- N2&#45;&gt;NN2_0 -->
<g id="edge1" class="edge"><title>N2&#45;&gt;NN2_0</title>
<g id="a_edge1"><a xlink:title="15119.35kB">
<path fill="none" stroke="black" d="M440.52,-850.888C433.185,-845.357 426.252,-839.397 420,-833 412.496,-825.322 406.675,-815.145 402.391,-805.696"/>
<polygon fill="black" stroke="black" points="405.538,-804.148 398.477,-796.249 399.071,-806.827 405.538,-804.148"/>
</a>
</g>
<g id="a_edge1&#45;label"><a xlink:title="15119.35kB">
<text text-anchor="middle" x="455.5" y="-821.8" font-family="Times,serif" font-size="14.00"> 15119.35kB</text>
</a>
</g>
</g>
<!-- NN2_1 -->
<g id="NN2_1" class="node"><title>NN2_1</title>
<g id="a_NN2_1"><a xlink:title="3152.57kB">
<polygon fill="#f8f8f8" stroke="black" points="514,-796 464,-796 460,-792 460,-760 510,-760 514,-764 514,-796"/>
<polyline fill="none" stroke="black" points="510,-792 460,-792 "/>
<polyline fill="none" stroke="black" points="510,-792 510,-760 "/>
<polyline fill="none" stroke="black" points="510,-792 514,-796 "/>
<text text-anchor="middle" x="487" y="-776.1" font-family="Times,serif" font-size="8.00">26.62kB</text>
</a>
</g>
</g>
<!-- N2&#45;&gt;NN2_1 -->
<g id="edge2" class="edge"><title>N2&#45;&gt;NN2_1</title>
<g id="a_edge2"><a xlink:title="3152.57kB">
<path fill="none" stroke="black" d="M510.143,-850.639C506.375,-844.892 502.909,-838.965 500,-833 495.928,-824.653 493.08,-814.943 491.112,-806.078"/>
<polygon fill="black" stroke="black" points="494.533,-805.336 489.184,-796.19 487.662,-806.675 494.533,-805.336"/>
</a>
</g>
<g id="a_edge2&#45;label"><a xlink:title="3152.57kB">
<text text-anchor="middle" x="532" y="-821.8" font-family="Times,serif" font-size="14.00"> 3152.57kB</text>
</a>
</g>
</g>
<!-- NN2_2 -->
<g id="NN2_2" class="node"><title>NN2_2</title>
<g id="a_NN2_2"><a xlink:title="2640.83kB">
<polygon fill="#f8f8f8" stroke="black" points="601,-796 551,-796 547,-792 547,-760 597,-760 601,-764 601,-796"/>
<polyline fill="none" stroke="black" points="597,-792 547,-792 "/>
<polyline fill="none" stroke="black" points="597,-792 597,-760 "/>
<polyline fill="none" stroke="black" points="597,-792 601,-796 "/>
<text text-anchor="middle" x="574" y="-776.1" font-family="Times,serif" font-size="8.00">32kB</text>
</a>
</g>
</g>
<!-- N2&#45;&gt;NN2_2 -->
<g id="edge3" class="edge"><title>N2&#45;&gt;NN2_2</title>
<g id="a_edge3"><a xlink:title="2640.83kB">
<path fill="none" stroke="black" d="M564.971,-850.665C566.906,-835.312 568.921,-819.312 570.556,-806.334"/>
<polygon fill="black" stroke="black" points="574.052,-806.584 571.83,-796.225 567.107,-805.709 574.052,-806.584"/>
</a>
</g>
<g id="a_edge3&#45;label"><a xlink:title="2640.83kB">
<text text-anchor="middle" x="601" y="-821.8" font-family="Times,serif" font-size="14.00"> 2640.83kB</text>
</a>
</g>
</g>
<!-- NN2_3 -->
<g id="NN2_3" class="node"><title>NN2_3</title>
<g id="a_NN2_3"><a xlink:title="2104.51kB">
<polygon fill="#f8f8f8" stroke="black" points="688,-796 638,-796 634,-792 634,-760 684,-760 688,-764 688,-796"/>
<polyline fill="none" stroke="black" points="684,-792 634,-792 "/>
<polyline fill="none" stroke="black" points="684,-792 684,-760 "/>
<polyline fill="none" stroke="black" points="684,-792 688,-796 "/>
<text text-anchor="middle" x="661" y="-776.1" font-family="Times,serif" font-size="8.00">28kB</text>
</a>
</g>
</g>
<!-- N2&#45;&gt;NN2_3 -->
<g id="edge4" class="edge"><title>N2&#45;&gt;NN2_3</title>
<g id="a_edge4"><a xlink:title="2104.51kB">
<path fill="none" stroke="black" d="M622.527,-850.76C627.731,-845.03 632.65,-839.073 637,-833 642.879,-824.792 647.784,-814.916 651.596,-805.866"/>
<polygon fill="black" stroke="black" points="654.881,-807.075 655.297,-796.488 648.37,-804.505 654.881,-807.075"/>
</a>
</g>
<g id="a_edge4&#45;label"><a xlink:title="2104.51kB">
<text text-anchor="middle" x="678" y="-821.8" font-family="Times,serif" font-size="14.00"> 2104.51kB</text>
</a>
</g>
</g>
<!-- N8 -->
<g id="node8" class="node"><title>N8</title>
<g id="a_node8"><a xlink:title="fmt.Sprintf (512.01kB)">
<polygon fill="#edecea" stroke="#b2ac9f" points="785,-695 695,-695 695,-659 785,-659 785,-695"/>
<text text-anchor="middle" x="740" y="-684.1" font-family="Times,serif" font-size="8.00">fmt</text>
<text text-anchor="middle" x="740" y="-675.1" font-family="Times,serif" font-size="8.00">Sprintf</text>
<text text-anchor="middle" x="740" y="-666.1" font-family="Times,serif" font-size="8.00">0 of 512.01kB (2.13%)</text>
</a>
</g>
</g>
<!-- N2&#45;&gt;N8 -->
<g id="edge21" class="edge"><title>N2&#45;&gt;N8</title>
<g id="a_edge21"><a xlink:title="main.handler &#45;&gt; fmt.Sprintf (512.01kB)">
<path fill="none" stroke="#b2ac9f" d="M686.855,-859.215C697.1,-851.684 706.403,-843 714,-833 742.298,-795.749 744.354,-738.874 742.626,-705.367"/>
<polygon fill="#b2ac9f" stroke="#b2ac9f" points="746.116,-705.109 741.96,-695.363 739.132,-705.574 746.116,-705.109"/>
</a>
</g>
<g id="a_edge21&#45;label"><a xlink:title="main.handler &#45;&gt; fmt.Sprintf (512.01kB)">
<text text-anchor="middle" x="771" y="-774.3" font-family="Times,serif" font-size="14.00"> 512.01kB</text>
</a>
</g>
</g>
<!-- N3 -->
<g id="node3" class="node"><title>N3</title>
<g id="a_node3"><a xlink:title="sync.(*Pool).pinSlow (512.25kB)">
<polygon fill="#edecea" stroke="#b2ac9f" points="351.5,-705 254.5,-705 254.5,-649 351.5,-649 351.5,-705"/>
<text text-anchor="middle" x="303" y="-692.2" font-family="Times,serif" font-size="11.00">sync</text>
<text text-anchor="middle" x="303" y="-680.2" font-family="Times,serif" font-size="11.00">(*Pool)</text>
<text text-anchor="middle" x="303" y="-668.2" font-family="Times,serif" font-size="11.00">pinSlow</text>
<text text-anchor="middle" x="303" y="-656.2" font-family="Times,serif" font-size="11.00">512.25kB (2.13%)</text>
</a>
</g>
</g>
<!-- NN3_0 -->
<g id="NN3_0" class="node"><title>NN3_0</title>
<g id="a_NN3_0"><a xlink:title="512.25kB">
<polygon fill="#f8f8f8" stroke="black" points="330,-594 280,-594 276,-590 276,-558 326,-558 330,-562 330,-594"/>
<polyline fill="none" stroke="black" points="326,-590 276,-590 "/>
<polyline fill="none" stroke="black" points="326,-590 326,-558 "/>
<polyline fill="none" stroke="black" points="326,-590 330,-594 "/>
<text text-anchor="middle" x="303" y="-574.1" font-family="Times,serif" font-size="8.00">512B</text>
</a>
</g>
</g>
<!-- N3&#45;&gt;NN3_0 -->
<g id="edge5" class="edge"><title>N3&#45;&gt;NN3_0</title>
<g id="a_edge5"><a xlink:title="512.25kB">
<path fill="none" stroke="black" d="M303,-648.948C303,-635.125 303,-618.338 303,-604.458"/>
<polygon fill="black" stroke="black" points="306.5,-604.061 303,-594.061 299.5,-604.061 306.5,-604.061"/>
</a>
</g>
<g id="a_edge5&#45;label"><a xlink:title="512.25kB">
<text text-anchor="middle" x="332" y="-619.8" font-family="Times,serif" font-size="14.00"> 512.25kB</text>
</a>
</g>
</g>
<!-- N4 -->
<g id="node4" class="node"><title>N4</title>
<g id="a_node4"><a xlink:title="reflect.packEface (512.01kB)">
<polygon fill="#edecea" stroke="#b2ac9f" points="788.5,-131 691.5,-131 691.5,-87 788.5,-87 788.5,-131"/>
<text text-anchor="middle" x="740" y="-118.2" font-family="Times,serif" font-size="11.00">reflect</text>
<text text-anchor="middle" x="740" y="-106.2" font-family="Times,serif" font-size="11.00">packEface</text>
<text text-anchor="middle" x="740" y="-94.2" font-family="Times,serif" font-size="11.00">512.01kB (2.13%)</text>
</a>
</g>
</g>
<!-- NN4_0 -->
<g id="NN4_0" class="node"><title>NN4_0</title>
<g id="a_NN4_0"><a xlink:title="512.01kB">
<polygon fill="#f8f8f8" stroke="black" points="767,-36 717,-36 713,-32 713,-0 763,-0 767,-4 767,-36"/>
<polyline fill="none" stroke="black" points="763,-32 713,-32 "/>
<polyline fill="none" stroke="black" points="763,-32 763,-0 "/>
<polyline fill="none" stroke="black" points="763,-32 767,-36 "/>
<text text-anchor="middle" x="740" y="-16.1" font-family="Times,serif" font-size="8.00">16B</text>
</a>
</g>
</g>
<!-- N4&#45;&gt;NN4_0 -->
<g id="edge6" class="edge"><title>N4&#45;&gt;NN4_0</title>
<g id="a_edge6"><a xlink:title="512.01kB">
<path fill="none" stroke="black" d="M740,-86.9082C740,-74.7803 740,-59.4094 740,-46.3598"/>
<polygon fill="black" stroke="black" points="743.5,-46.0663 740,-36.0663 736.5,-46.0663 743.5,-46.0663"/>
</a>
</g>
<g id="a_edge6&#45;label"><a xlink:title="512.01kB">
<text text-anchor="middle" x="769" y="-57.8" font-family="Times,serif" font-size="14.00"> 512.01kB</text>
</a>
</g>
</g>
<!-- N5 -->
<g id="node5" class="node"><title>N5</title>
<g id="a_node5"><a xlink:title="fmt.(*pp).doPrintf (512.01kB)">
<polygon fill="#edecea" stroke="#b2ac9f" points="785,-598 695,-598 695,-554 785,-554 785,-598"/>
<text text-anchor="middle" x="740" y="-587.6" font-family="Times,serif" font-size="8.00">fmt</text>
<text text-anchor="middle" x="740" y="-578.6" font-family="Times,serif" font-size="8.00">(*pp)</text>
<text text-anchor="middle" x="740" y="-569.6" font-family="Times,serif" font-size="8.00">doPrintf</text>
<text text-anchor="middle" x="740" y="-560.6" font-family="Times,serif" font-size="8.00">0 of 512.01kB (2.13%)</text>
</a>
</g>
</g>
<!-- N6 -->
<g id="node6" class="node"><title>N6</title>
<g id="a_node6"><a xlink:title="fmt.(*pp).printArg (512.01kB)">
<polygon fill="#edecea" stroke="#b2ac9f" points="785,-503 695,-503 695,-459 785,-459 785,-503"/>
<text text-anchor="middle" x="740" y="-492.6" font-family="Times,serif" font-size="8.00">fmt</text>
<text text-anchor="middle" x="740" y="-483.6" font-family="Times,serif" font-size="8.00">(*pp)</text>
<text text-anchor="middle" x="740" y="-474.6" font-family="Times,serif" font-size="8.00">printArg</text>
<text text-anchor="middle" x="740" y="-465.6" font-family="Times,serif" font-size="8.00">0 of 512.01kB (2.13%)</text>
</a>
</g>
</g>
<!-- N5&#45;&gt;N6 -->
<g id="edge17" class="edge"><title>N5&#45;&gt;N6</title>
<g id="a_edge17"><a xlink:title="fmt.(*pp).doPrintf &#45;&gt; fmt.(*pp).printArg (512.01kB)">
<path fill="none" stroke="#b2ac9f" d="M740,-553.897C740,-541.887 740,-526.617 740,-513.242"/>
<polygon fill="#b2ac9f" stroke="#b2ac9f" points="743.5,-513.02 740,-503.02 736.5,-513.02 743.5,-513.02"/>
</a>
</g>
<g id="a_edge17&#45;label"><a xlink:title="fmt.(*pp).doPrintf &#45;&gt; fmt.(*pp).printArg (512.01kB)">
<text text-anchor="middle" x="769" y="-524.8" font-family="Times,serif" font-size="14.00"> 512.01kB</text>
</a>
</g>
</g>
<!-- N7 -->
<g id="node7" class="node"><title>N7</title>
<g id="a_node7"><a xlink:title="fmt.(*pp).printValue (512.01kB)">
<polygon fill="#edecea" stroke="#b2ac9f" points="785,-408 695,-408 695,-364 785,-364 785,-408"/>
<text text-anchor="middle" x="740" y="-397.6" font-family="Times,serif" font-size="8.00">fmt</text>
<text text-anchor="middle" x="740" y="-388.6" font-family="Times,serif" font-size="8.00">(*pp)</text>
<text text-anchor="middle" x="740" y="-379.6" font-family="Times,serif" font-size="8.00">printValue</text>
<text text-anchor="middle" x="740" y="-370.6" font-family="Times,serif" font-size="8.00">0 of 512.01kB (2.13%)</text>
</a>
</g>
</g>
<!-- N6&#45;&gt;N7 -->
<g id="edge18" class="edge"><title>N6&#45;&gt;N7</title>
<g id="a_edge18"><a xlink:title="fmt.(*pp).printArg &#45;&gt; fmt.(*pp).printValue (512.01kB)">
<path fill="none" stroke="#b2ac9f" d="M740,-458.897C740,-446.887 740,-431.617 740,-418.242"/>
<polygon fill="#b2ac9f" stroke="#b2ac9f" points="743.5,-418.02 740,-408.02 736.5,-418.02 743.5,-418.02"/>
</a>
</g>
<g id="a_edge18&#45;label"><a xlink:title="fmt.(*pp).printArg &#45;&gt; fmt.(*pp).printValue (512.01kB)">
<text text-anchor="middle" x="769" y="-429.8" font-family="Times,serif" font-size="14.00"> 512.01kB</text>
</a>
</g>
</g>
<!-- N15 -->
<g id="node15" class="node"><title>N15</title>
<g id="a_node15"><a xlink:title="reflect.Value.Interface (512.01kB)">
<polygon fill="#edecea" stroke="#b2ac9f" points="785,-313 695,-313 695,-269 785,-269 785,-313"/>
<text text-anchor="middle" x="740" y="-302.6" font-family="Times,serif" font-size="8.00">reflect</text>
<text text-anchor="middle" x="740" y="-293.6" font-family="Times,serif" font-size="8.00">Value</text>
<text text-anchor="middle" x="740" y="-284.6" font-family="Times,serif" font-size="8.00">Interface</text>
<text text-anchor="middle" x="740" y="-275.6" font-family="Times,serif" font-size="8.00">0 of 512.01kB (2.13%)</text>
</a>
</g>
</g>
<!-- N7&#45;&gt;N15 -->
<g id="edge19" class="edge"><title>N7&#45;&gt;N15</title>
<g id="a_edge19"><a xlink:title="fmt.(*pp).printValue &#45;&gt; reflect.Value.Interface (512.01kB)">
<path fill="none" stroke="#b2ac9f" d="M740,-363.897C740,-351.887 740,-336.617 740,-323.242"/>
<polygon fill="#b2ac9f" stroke="#b2ac9f" points="743.5,-323.02 740,-313.02 736.5,-323.02 743.5,-323.02"/>
</a>
</g>
<g id="a_edge19&#45;label"><a xlink:title="fmt.(*pp).printValue &#45;&gt; reflect.Value.Interface (512.01kB)">
<text text-anchor="middle" x="769" y="-334.8" font-family="Times,serif" font-size="14.00"> 512.01kB</text>
</a>
</g>
</g>
<!-- N8&#45;&gt;N5 -->
<g id="edge20" class="edge"><title>N8&#45;&gt;N5</title>
<g id="a_edge20"><a xlink:title="fmt.Sprintf &#45;&gt; fmt.(*pp).doPrintf (512.01kB)">
<path fill="none" stroke="#b2ac9f" d="M740,-658.756C740,-644.94 740,-625.188 740,-608.56"/>
<polygon fill="#b2ac9f" stroke="#b2ac9f" points="743.5,-608.177 740,-598.177 736.5,-608.177 743.5,-608.177"/>
</a>
</g>
<g id="a_edge20&#45;label"><a xlink:title="fmt.Sprintf &#45;&gt; fmt.(*pp).doPrintf (512.01kB)">
<text text-anchor="middle" x="769" y="-619.8" font-family="Times,serif" font-size="14.00"> 512.01kB</text>
</a>
</g>
</g>
<!-- N9 -->
<g id="node9" class="node"><title>N9</title>
<g id="a_node9"><a xlink:title="net/http.(*ServeMux).ServeHTTP (23529.27kB)">
<polygon fill="#edd5d5" stroke="#b20100" points="608.5,-1153 507.5,-1153 507.5,-1109 608.5,-1109 608.5,-1153"/>
<text text-anchor="middle" x="558" y="-1142.6" font-family="Times,serif" font-size="8.00">net/http</text>
<text text-anchor="middle" x="558" y="-1133.6" font-family="Times,serif" font-size="8.00">(*ServeMux)</text>
<text text-anchor="middle" x="558" y="-1124.6" font-family="Times,serif" font-size="8.00">ServeHTTP</text>
<text text-anchor="middle" x="558" y="-1115.6" font-family="Times,serif" font-size="8.00">0 of 23529.27kB (97.87%)</text>
</a>
</g>
</g>
<!-- N11 -->
<g id="node11" class="node"><title>N11</title>
<g id="a_node11"><a xlink:title="net/http.HandlerFunc.ServeHTTP (23529.27kB)">
<polygon fill="#edd5d5" stroke="#b20100" points="608.5,-1058 507.5,-1058 507.5,-1014 608.5,-1014 608.5,-1058"/>
<text text-anchor="middle" x="558" y="-1047.6" font-family="Times,serif" font-size="8.00">net/http</text>
<text text-anchor="middle" x="558" y="-1038.6" font-family="Times,serif" font-size="8.00">HandlerFunc</text>
<text text-anchor="middle" x="558" y="-1029.6" font-family="Times,serif" font-size="8.00">ServeHTTP</text>
<text text-anchor="middle" x="558" y="-1020.6" font-family="Times,serif" font-size="8.00">0 of 23529.27kB (97.87%)</text>
</a>
</g>
</g>
<!-- N9&#45;&gt;N11 -->
<g id="edge7" class="edge"><title>N9&#45;&gt;N11</title>
<g id="a_edge7"><a xlink:title="net/http.(*ServeMux).ServeHTTP &#45;&gt; net/http.HandlerFunc.ServeHTTP (23529.27kB)">
<path fill="none" stroke="#b20100" stroke-width="5" d="M558,-1108.9C558,-1096.89 558,-1081.62 558,-1068.24"/>
<polygon fill="#b20100" stroke="#b20100" stroke-width="5" points="562.375,-1068.02 558,-1058.02 553.625,-1068.02 562.375,-1068.02"/>
</a>
</g>
<g id="a_edge7&#45;label"><a xlink:title="net/http.(*ServeMux).ServeHTTP &#45;&gt; net/http.HandlerFunc.ServeHTTP (23529.27kB)">
<text text-anchor="middle" x="593.5" y="-1079.8" font-family="Times,serif" font-size="14.00"> 23529.27kB</text>
</a>
</g>
</g>
<!-- N13 -->
<g id="node13" class="node"><title>N13</title>
<g id="a_node13"><a xlink:title="net/http.readRequest (512.25kB)">
<polygon fill="#edecea" stroke="#b2ac9f" points="385,-1149 295,-1149 295,-1113 385,-1113 385,-1149"/>
<text text-anchor="middle" x="340" y="-1138.1" font-family="Times,serif" font-size="8.00">net/http</text>
<text text-anchor="middle" x="340" y="-1129.1" font-family="Times,serif" font-size="8.00">readRequest</text>
<text text-anchor="middle" x="340" y="-1120.1" font-family="Times,serif" font-size="8.00">0 of 512.25kB (2.13%)</text>
</a>
</g>
</g>
<!-- N10&#45;&gt;N13 -->
<g id="edge11" class="edge"><title>N10&#45;&gt;N13</title>
<g id="a_edge11"><a xlink:title="net/http.(*conn).readRequest &#45;&gt; net/http.readRequest (512.25kB)">
<path fill="none" stroke="#b2ac9f" d="M372.47,-1203.9C366.413,-1190.49 358.52,-1173.01 352.033,-1158.64"/>
<polygon fill="#b2ac9f" stroke="#b2ac9f" points="355.112,-1156.96 347.806,-1149.28 348.732,-1159.84 355.112,-1156.96"/>
</a>
</g>
<g id="a_edge11&#45;label"><a xlink:title="net/http.(*conn).readRequest &#45;&gt; net/http.readRequest (512.25kB)">
<text text-anchor="middle" x="393" y="-1174.8" font-family="Times,serif" font-size="14.00"> 512.25kB</text>
</a>
</g>
</g>
<!-- N11&#45;&gt;N2 -->
<g id="edge9" class="edge"><title>N11&#45;&gt;N2</title>
<g id="a_edge9"><a xlink:title="net/http.HandlerFunc.ServeHTTP &#45;&gt; main.handler (23529.27kB)">
<path fill="none" stroke="#b20100" stroke-width="5" d="M558,-1013.74C558,-1002.44 558,-987.87 558,-973.18"/>
<polygon fill="#b20100" stroke="#b20100" stroke-width="5" points="562.375,-973.03 558,-963.03 553.625,-973.03 562.375,-973.03"/>
</a>
</g>
<g id="a_edge9&#45;label"><a xlink:title="net/http.HandlerFunc.ServeHTTP &#45;&gt; main.handler (23529.27kB)">
<text text-anchor="middle" x="593.5" y="-984.8" font-family="Times,serif" font-size="14.00"> 23529.27kB</text>
</a>
</g>
</g>
<!-- N12 -->
<g id="node12" class="node"><title>N12</title>
<g id="a_node12"><a xlink:title="net/http.newTextprotoReader (512.25kB)">
<polygon fill="#edecea" stroke="#b2ac9f" points="375,-1054 285,-1054 285,-1018 375,-1018 375,-1054"/>
<text text-anchor="middle" x="330" y="-1043.1" font-family="Times,serif" font-size="8.00">net/http</text>
<text text-anchor="middle" x="330" y="-1034.1" font-family="Times,serif" font-size="8.00">newTextprotoReader</text>
<text text-anchor="middle" x="330" y="-1025.1" font-family="Times,serif" font-size="8.00">0 of 512.25kB (2.13%)</text>
</a>
</g>
</g>
<!-- N17 -->
<g id="node17" class="node"><title>N17</title>
<g id="a_node17"><a xlink:title="sync.(*Pool).Get (512.25kB)">
<polygon fill="#edecea" stroke="#b2ac9f" points="372,-929 282,-929 282,-885 372,-885 372,-929"/>
<text text-anchor="middle" x="327" y="-918.6" font-family="Times,serif" font-size="8.00">sync</text>
<text text-anchor="middle" x="327" y="-909.6" font-family="Times,serif" font-size="8.00">(*Pool)</text>
<text text-anchor="middle" x="327" y="-900.6" font-family="Times,serif" font-size="8.00">Get</text>
<text text-anchor="middle" x="327" y="-891.6" font-family="Times,serif" font-size="8.00">0 of 512.25kB (2.13%)</text>
</a>
</g>
</g>
<!-- N12&#45;&gt;N17 -->
<g id="edge13" class="edge"><title>N12&#45;&gt;N17</title>
<g id="a_edge13"><a xlink:title="net/http.newTextprotoReader &#45;&gt; sync.(*Pool).Get (512.25kB)">
<path fill="none" stroke="#b2ac9f" d="M329.595,-1017.87C329.12,-997.73 328.32,-963.899 327.734,-939.089"/>
<polygon fill="#b2ac9f" stroke="#b2ac9f" points="331.233,-938.988 327.498,-929.074 324.235,-939.154 331.233,-938.988"/>
</a>
</g>
<g id="a_edge13&#45;label"><a xlink:title="net/http.newTextprotoReader &#45;&gt; sync.(*Pool).Get (512.25kB)">
<text text-anchor="middle" x="359" y="-984.8" font-family="Times,serif" font-size="14.00"> 512.25kB</text>
</a>
</g>
</g>
<!-- N13&#45;&gt;N12 -->
<g id="edge14" class="edge"><title>N13&#45;&gt;N12</title>
<g id="a_edge14"><a xlink:title="net/http.readRequest &#45;&gt; net/http.newTextprotoReader (512.25kB)">
<path fill="none" stroke="#b2ac9f" d="M338.166,-1112.94C336.709,-1099.39 334.643,-1080.18 332.954,-1064.47"/>
<polygon fill="#b2ac9f" stroke="#b2ac9f" points="336.406,-1063.83 331.856,-1054.26 329.446,-1064.58 336.406,-1063.83"/>
</a>
</g>
<g id="a_edge14&#45;label"><a xlink:title="net/http.readRequest &#45;&gt; net/http.newTextprotoReader (512.25kB)">
<text text-anchor="middle" x="365" y="-1079.8" font-family="Times,serif" font-size="14.00"> 512.25kB</text>
</a>
</g>
</g>
<!-- N14&#45;&gt;N9 -->
<g id="edge10" class="edge"><title>N14&#45;&gt;N9</title>
<g id="a_edge10"><a xlink:title="net/http.serverHandler.ServeHTTP &#45;&gt; net/http.(*ServeMux).ServeHTTP (23529.27kB)">
<path fill="none" stroke="#b20100" stroke-width="5" d="M558,-1203.9C558,-1191.89 558,-1176.62 558,-1163.24"/>
<polygon fill="#b20100" stroke="#b20100" stroke-width="5" points="562.375,-1163.02 558,-1153.02 553.625,-1163.02 562.375,-1163.02"/>
</a>
</g>
<g id="a_edge10&#45;label"><a xlink:title="net/http.serverHandler.ServeHTTP &#45;&gt; net/http.(*ServeMux).ServeHTTP (23529.27kB)">
<text text-anchor="middle" x="593.5" y="-1174.8" font-family="Times,serif" font-size="14.00"> 23529.27kB</text>
</a>
</g>
</g>
<!-- N16 -->
<g id="node16" class="node"><title>N16</title>
<g id="a_node16"><a xlink:title="reflect.valueInterface (512.01kB)">
<polygon fill="#edecea" stroke="#b2ac9f" points="785,-218 695,-218 695,-182 785,-182 785,-218"/>
<text text-anchor="middle" x="740" y="-207.1" font-family="Times,serif" font-size="8.00">reflect</text>
<text text-anchor="middle" x="740" y="-198.1" font-family="Times,serif" font-size="8.00">valueInterface</text>
<text text-anchor="middle" x="740" y="-189.1" font-family="Times,serif" font-size="8.00">0 of 512.01kB (2.13%)</text>
</a>
</g>
</g>
<!-- N15&#45;&gt;N16 -->
<g id="edge22" class="edge"><title>N15&#45;&gt;N16</title>
<g id="a_edge22"><a xlink:title="reflect.Value.Interface &#45;&gt; reflect.valueInterface (512.01kB)">
<path fill="none" stroke="#b2ac9f" d="M740,-268.908C740,-256.78 740,-241.409 740,-228.36"/>
<polygon fill="#b2ac9f" stroke="#b2ac9f" points="743.5,-228.066 740,-218.066 736.5,-228.066 743.5,-228.066"/>
</a>
</g>
<g id="a_edge22&#45;label"><a xlink:title="reflect.Value.Interface &#45;&gt; reflect.valueInterface (512.01kB)">
<text text-anchor="middle" x="769" y="-239.8" font-family="Times,serif" font-size="14.00"> 512.01kB</text>
</a>
</g>
</g>
<!-- N16&#45;&gt;N4 -->
<g id="edge23" class="edge"><title>N16&#45;&gt;N4</title>
<g id="a_edge23"><a xlink:title="reflect.valueInterface &#45;&gt; reflect.packEface (512.01kB)">
<path fill="none" stroke="#b2ac9f" d="M740,-181.84C740,-170.441 740,-155.134 740,-141.578"/>
<polygon fill="#b2ac9f" stroke="#b2ac9f" points="743.5,-141.19 740,-131.191 736.5,-141.191 743.5,-141.19"/>
</a>
</g>
<g id="a_edge23&#45;label"><a xlink:title="reflect.valueInterface &#45;&gt; reflect.packEface (512.01kB)">
<text text-anchor="middle" x="769" y="-152.8" font-family="Times,serif" font-size="14.00"> 512.01kB</text>
</a>
</g>
</g>
<!-- N18 -->
<g id="node18" class="node"><title>N18</title>
<g id="a_node18"><a xlink:title="sync.(*Pool).pin (512.25kB)">
<polygon fill="#edecea" stroke="#b2ac9f" points="348,-800 258,-800 258,-756 348,-756 348,-800"/>
<text text-anchor="middle" x="303" y="-789.6" font-family="Times,serif" font-size="8.00">sync</text>
<text text-anchor="middle" x="303" y="-780.6" font-family="Times,serif" font-size="8.00">(*Pool)</text>
<text text-anchor="middle" x="303" y="-771.6" font-family="Times,serif" font-size="8.00">pin</text>
<text text-anchor="middle" x="303" y="-762.6" font-family="Times,serif" font-size="8.00">0 of 512.25kB (2.13%)</text>
</a>
</g>
</g>
<!-- N17&#45;&gt;N18 -->
<g id="edge15" class="edge"><title>N17&#45;&gt;N18</title>
<g id="a_edge15"><a xlink:title="sync.(*Pool).Get &#45;&gt; sync.(*Pool).pin (512.25kB)">
<path fill="none" stroke="#b2ac9f" d="M322.921,-884.923C320.109,-870.346 316.298,-850.5 313,-833 311.592,-825.528 310.09,-817.471 308.691,-809.918"/>
<polygon fill="#b2ac9f" stroke="#b2ac9f" points="312.123,-809.231 306.863,-800.034 305.24,-810.504 312.123,-809.231"/>
</a>
</g>
<g id="a_edge15&#45;label"><a xlink:title="sync.(*Pool).Get &#45;&gt; sync.(*Pool).pin (512.25kB)">
<text text-anchor="middle" x="342" y="-821.8" font-family="Times,serif" font-size="14.00"> 512.25kB</text>
</a>
</g>
</g>
<!-- N18&#45;&gt;N3 -->
<g id="edge16" class="edge"><title>N18&#45;&gt;N3</title>
<g id="a_edge16"><a xlink:title="sync.(*Pool).pin &#45;&gt; sync.(*Pool).pinSlow (512.25kB)">
<path fill="none" stroke="#b2ac9f" d="M303,-755.518C303,-743.736 303,-728.796 303,-715.182"/>
<polygon fill="#b2ac9f" stroke="#b2ac9f" points="306.5,-715.105 303,-705.105 299.5,-715.105 306.5,-715.105"/>
</a>
</g>
<g id="a_edge16&#45;label"><a xlink:title="sync.(*Pool).pin &#45;&gt; sync.(*Pool).pinSlow (512.25kB)">
<text text-anchor="middle" x="332" y="-726.8" font-family="Times,serif" font-size="14.00"> 512.25kB</text>
</a>
</g>
</g>
</g>
</g></svg>
